<svg data-v-423bf9ae="" xmlns="http://www.w3.org/2000/svg" viewBox="0 0 498 90" class="iconLeft"><!----><!----><!----><g data-v-423bf9ae="" id="2e85ce2d-a014-42d5-8e4b-c3c30c2b7f81" fill="#ffffff" transform="matrix(6.036217558641619,0,0,6.036217558641619,137.78673725043402,-10.17102720322525)"><path d="M7.41 14L7.41 14Q7.28 14 7.24 13.90L7.24 13.90L5.03 9.34L5.03 9.34Q5.01 9.30 4.97 9.30L4.97 9.30L2.13 9.30L2.13 9.30Q2.07 9.30 2.07 9.35L2.07 9.35L2.07 13.86L2.07 13.86Q2.07 14 1.93 14L1.93 14L1.67 14L1.67 14Q1.53 14 1.53 13.86L1.53 13.86L1.53 4.31L1.53 4.31Q1.53 4.17 1.67 4.17L1.67 4.17L5.10 4.17L5.10 4.17Q6.24 4.17 6.95 4.89L6.95 4.89L6.95 4.89Q7.66 5.60 7.66 6.76L7.66 6.76L7.66 6.76Q7.66 7.76 7.11 8.43L7.11 8.43L7.11 8.43Q6.55 9.10 5.61 9.25L5.61 9.25L5.61 9.25Q5.54 9.28 5.57 9.32L5.57 9.32L7.76 13.83L7.76 13.83Q7.77 13.86 7.77 13.90L7.77 13.90L7.77 13.90Q7.77 14 7.66 14L7.66 14L7.41 14ZM2.13 4.68L2.13 4.68Q2.07 4.68 2.07 4.73L2.07 4.73L2.07 8.76L2.07 8.76Q2.07 8.82 2.13 8.82L2.13 8.82L5.08 8.82L5.08 8.82Q5.99 8.82 6.55 8.25L6.55 8.25L6.55 8.25Q7.11 7.67 7.11 6.76L7.11 6.76L7.11 6.76Q7.11 5.82 6.55 5.25L6.55 5.25L6.55 5.25Q5.99 4.68 5.08 4.68L5.08 4.68L2.13 4.68ZM12.31 13.62L12.31 13.62Q13.03 13.62 13.55 13.29L13.55 13.29L13.55 13.29Q14.07 12.95 14.32 12.38L14.32 12.38L14.32 12.38Q14.36 12.25 14.49 12.29L14.49 12.29L14.67 12.35L14.67 12.35Q14.81 12.39 14.77 12.53L14.77 12.53L14.77 12.53Q14.49 13.24 13.83 13.68L13.83 13.68L13.83 13.68Q13.17 14.11 12.28 14.11L12.28 14.11L12.28 14.11Q11.33 14.11 10.67 13.62L10.67 13.62L10.67 13.62Q10.01 13.13 9.76 12.31L9.76 12.31L9.76 12.31Q9.60 11.72 9.60 10.47L9.60 10.47L9.60 10.47Q9.60 9.83 9.63 9.44L9.63 9.44L9.63 9.44Q9.65 9.06 9.72 8.75L9.72 8.75L9.72 8.75Q9.93 7.90 10.61 7.38L10.61 7.38L10.61 7.38Q11.28 6.86 12.26 6.86L12.26 6.86L12.26 6.86Q13.30 6.86 13.99 7.41L13.99 7.41L13.99 7.41Q14.67 7.97 14.85 8.89L14.85 8.89L14.85 8.89Q14.91 9.16 14.92 9.52L14.92 9.52L14.92 9.52Q14.94 9.88 14.94 10.47L14.94 10.47L14.94 10.47Q14.94 10.63 14.80 10.63L14.80 10.63L10.21 10.63L10.21 10.63Q10.15 10.63 10.15 10.68L10.15 10.68L10.15 10.68Q10.15 11.13 10.16 11.49L10.16 11.49L10.16 11.49Q10.18 11.86 10.22 12.03L10.22 12.03L10.22 12.03Q10.36 12.75 10.91 13.19L10.91 13.19L10.91 13.19Q11.47 13.62 12.31 13.62L12.31 13.62ZM12.26 7.35L12.26 7.35Q11.44 7.35 10.90 7.78L10.90 7.78L10.90 7.78Q10.36 8.22 10.22 8.92L10.22 8.92L10.22 8.92Q10.15 9.37 10.15 10.12L10.15 10.12L10.15 10.12Q10.15 10.18 10.21 10.18L10.21 10.18L14.34 10.18L14.34 10.18Q14.39 10.18 14.39 10.12L14.39 10.12L14.39 10.12Q14.39 9.23 14.32 8.95L14.32 8.95L14.32 8.95Q14.17 8.23 13.62 7.79L13.62 7.79L13.62 7.79Q13.08 7.35 12.26 7.35L12.26 7.35ZM19.33 14.06L19.33 14.06Q18.61 14.06 18.05 13.82L18.05 13.82L18.05 13.82Q17.49 13.58 17.17 13.17L17.17 13.17L17.17 13.17Q16.86 12.75 16.86 12.26L16.86 12.26L16.86 12.07L16.86 12.07Q16.86 11.93 17.00 11.93L17.00 11.93L17.25 11.93L17.25 11.93Q17.39 11.93 17.39 12.07L17.39 12.07L17.39 12.25L17.39 12.25Q17.39 12.60 17.63 12.91L17.63 12.91L17.63 12.91Q17.88 13.22 18.32 13.40L18.32 13.40L18.32 13.40Q18.76 13.59 19.32 13.59L19.32 13.59L19.32 13.59Q20.16 13.59 20.69 13.20L20.69 13.20L20.69 13.20Q21.21 12.80 21.21 12.17L21.21 12.17L21.21 12.17Q21.21 11.73 20.94 11.47L20.94 11.47L20.94 11.47Q20.68 11.20 20.34 11.07L20.34 11.07L20.34 11.07Q19.99 10.93 19.22 10.68L19.22 10.68L19.22 10.68Q18.47 10.44 18.00 10.23L18.00 10.23L18.00 10.23Q17.53 10.02 17.21 9.66L17.21 9.66L17.21 9.66Q16.90 9.30 16.90 8.74L16.90 8.74L16.90 8.74Q16.90 7.91 17.56 7.41L17.56 7.41L17.56 7.41Q18.21 6.92 19.29 6.92L19.29 6.92L19.29 6.92Q20.38 6.92 21.05 7.43L21.05 7.43L21.05 7.43Q21.71 7.94 21.71 8.72L21.71 8.72L21.71 8.76L21.71 8.76Q21.71 8.90 21.57 8.90L21.57 8.90L21.34 8.90L21.34 8.90Q21.20 8.90 21.20 8.81L21.20 8.81L21.20 8.72L21.20 8.72Q21.20 8.15 20.67 7.76L20.67 7.76L20.67 7.76Q20.15 7.38 19.28 7.38L19.28 7.38L19.28 7.38Q18.44 7.38 17.93 7.75L17.93 7.75L17.93 7.75Q17.43 8.12 17.43 8.71L17.43 8.71L17.43 8.71Q17.43 9.11 17.68 9.37L17.68 9.37L17.68 9.37Q17.92 9.63 18.30 9.79L18.30 9.79L18.30 9.79Q18.68 9.95 19.33 10.16L19.33 10.16L19.33 10.16Q20.16 10.42 20.62 10.61L20.62 10.61L20.62 10.61Q21.08 10.79 21.42 11.16L21.42 11.16L21.42 11.16Q21.76 11.54 21.76 12.14L21.76 12.14L21.76 12.14Q21.76 12.99 21.09 13.52L21.09 13.52L21.09 13.52Q20.43 14.06 19.33 14.06L19.33 14.06ZM26.64 7.31L26.64 7.31Q26.64 7.45 26.50 7.45L26.50 7.45L24.81 7.45L24.81 7.45Q24.75 7.45 24.75 7.50L24.75 7.50L24.75 12.15L24.75 12.15Q24.75 12.91 25.10 13.20L25.10 13.20L25.10 13.20Q25.45 13.50 26.19 13.50L26.19 13.50L26.50 13.50L26.50 13.50Q26.64 13.50 26.64 13.64L26.64 13.64L26.64 13.85L26.64 13.85Q26.64 13.99 26.50 14L26.50 14L26.15 14L26.15 14Q25.21 14 24.72 13.62L24.72 13.62L24.72 13.62Q24.22 13.24 24.22 12.25L24.22 12.25L24.22 7.50L24.22 7.50Q24.22 7.45 24.16 7.45L24.16 7.45L23.31 7.45L23.31 7.45Q23.17 7.45 23.17 7.31L23.17 7.31L23.17 7.11L23.17 7.11Q23.17 6.97 23.31 6.97L23.31 6.97L24.16 6.97L24.16 6.97Q24.22 6.97 24.22 6.92L24.22 6.92L24.22 5.33L24.22 5.33Q24.22 5.19 24.36 5.19L24.36 5.19L24.61 5.19L24.61 5.19Q24.75 5.19 24.75 5.33L24.75 5.33L24.75 6.92L24.75 6.92Q24.75 6.97 24.81 6.97L24.81 6.97L26.50 6.97L26.50 6.97Q26.64 6.97 26.64 7.11L26.64 7.11L26.64 7.31ZM31.30 14.11L31.30 14.11Q30.32 14.11 29.65 13.60L29.65 13.60L29.65 13.60Q28.98 13.09 28.76 12.24L28.76 12.24L28.76 12.24Q28.67 11.91 28.64 11.52L28.64 11.52L28.64 11.52Q28.62 11.12 28.62 10.47L28.62 10.47L28.62 10.47Q28.62 9.81 28.64 9.42L28.64 9.42L28.64 9.42Q28.66 9.03 28.74 8.72L28.74 8.72L28.74 8.72Q28.97 7.88 29.65 7.37L29.65 7.37L29.65 7.37Q30.34 6.86 31.30 6.86L31.30 6.86L31.30 6.86Q32.28 6.86 32.98 7.37L32.98 7.37L32.98 7.37Q33.67 7.88 33.87 8.72L33.87 8.72L33.87 8.72Q33.94 9.03 33.96 9.41L33.96 9.41L33.96 9.41Q33.98 9.79 33.98 10.47L33.98 10.47L33.98 10.47Q33.98 11.19 33.96 11.56L33.96 11.56L33.96 11.56Q33.94 11.93 33.87 12.24L33.87 12.24L33.87 12.24Q33.66 13.09 32.97 13.60L32.97 13.60L32.97 13.60Q32.28 14.11 31.30 14.11L31.30 14.11ZM31.30 13.62L31.30 13.62Q32.12 13.62 32.66 13.18L32.66 13.18L32.66 13.18Q33.21 12.74 33.36 12.03L33.36 12.03L33.36 12.03Q33.40 11.82 33.42 11.39L33.42 11.39L33.42 11.39Q33.43 10.96 33.43 10.49L33.43 10.49L33.43 10.49Q33.43 9.97 33.42 9.55L33.42 9.55L33.42 9.55Q33.40 9.14 33.36 8.95L33.36 8.95L33.36 8.95Q33.22 8.23 32.66 7.79L32.66 7.79L32.66 7.79Q32.10 7.35 31.29 7.35L31.29 7.35L31.29 7.35Q30.49 7.35 29.95 7.79L29.95 7.79L29.95 7.79Q29.40 8.23 29.25 8.95L29.25 8.95L29.25 8.95Q29.16 9.31 29.16 10.49L29.16 10.49L29.16 10.49Q29.16 11.68 29.25 12.03L29.25 12.03L29.25 12.03Q29.40 12.75 29.95 13.19L29.95 13.19L29.95 13.19Q30.49 13.62 31.30 13.62L31.30 13.62ZM38.72 4.69L38.72 4.69Q37.84 4.69 37.53 5.12L37.53 5.12L37.53 5.12Q37.23 5.54 37.23 6.48L37.23 6.48L37.23 6.92L37.23 6.92Q37.23 6.97 37.28 6.97L37.28 6.97L38.98 6.97L38.98 6.97Q39.12 6.97 39.12 7.11L39.12 7.11L39.12 7.34L39.12 7.34Q39.12 7.48 38.98 7.48L38.98 7.48L37.28 7.48L37.28 7.48Q37.23 7.48 37.23 7.53L37.23 7.53L37.23 13.86L37.23 13.86Q37.23 14 37.09 14L37.09 14L36.82 14L36.82 14Q36.68 14 36.68 13.86L36.68 13.86L36.68 7.53L36.68 7.53Q36.68 7.48 36.62 7.48L36.62 7.48L35.71 7.48L35.71 7.48Q35.57 7.48 35.57 7.34L35.57 7.34L35.57 7.11L35.57 7.11Q35.57 6.97 35.71 6.97L35.71 6.97L36.62 6.97L36.62 6.97Q36.68 6.97 36.68 6.92L36.68 6.92L36.68 6.47L36.68 6.47Q36.68 5.28 37.11 4.74L37.11 4.74L37.11 4.74Q37.55 4.20 38.70 4.20L38.70 4.20L39.03 4.20L39.03 4.20Q39.17 4.20 39.17 4.34L39.17 4.34L39.17 4.55L39.17 4.55Q39.17 4.69 39.03 4.69L39.03 4.69L38.72 4.69ZM41.27 14L41.27 14Q41.13 14 41.13 13.86L41.13 13.86L41.13 4.34L41.13 4.34Q41.13 4.20 41.27 4.20L41.27 4.20L41.54 4.20L41.54 4.20Q41.68 4.20 41.68 4.34L41.68 4.34L41.68 13.86L41.68 13.86Q41.68 14 41.54 14L41.54 14L41.27 14ZM46.70 14.11L46.70 14.11Q45.72 14.11 45.05 13.60L45.05 13.60L45.05 13.60Q44.38 13.09 44.16 12.24L44.16 12.24L44.16 12.24Q44.07 11.91 44.04 11.52L44.04 11.52L44.04 11.52Q44.02 11.12 44.02 10.47L44.02 10.47L44.02 10.47Q44.02 9.81 44.04 9.42L44.04 9.42L44.04 9.42Q44.06 9.03 44.14 8.72L44.14 8.72L44.14 8.72Q44.37 7.88 45.05 7.37L45.05 7.37L45.05 7.37Q45.74 6.86 46.70 6.86L46.70 6.86L46.70 6.86Q47.68 6.86 48.38 7.37L48.38 7.37L48.38 7.37Q49.07 7.88 49.27 8.72L49.27 8.72L49.27 8.72Q49.34 9.03 49.36 9.41L49.36 9.41L49.36 9.41Q49.38 9.79 49.38 10.47L49.38 10.47L49.38 10.47Q49.38 11.19 49.36 11.56L49.36 11.56L49.36 11.56Q49.34 11.93 49.27 12.24L49.27 12.24L49.27 12.24Q49.06 13.09 48.37 13.60L48.37 13.60L48.37 13.60Q47.68 14.11 46.70 14.11L46.70 14.11ZM46.70 13.62L46.70 13.62Q47.52 13.62 48.06 13.18L48.06 13.18L48.06 13.18Q48.61 12.74 48.76 12.03L48.76 12.03L48.76 12.03Q48.80 11.82 48.82 11.39L48.82 11.39L48.82 11.39Q48.83 10.96 48.83 10.49L48.83 10.49L48.83 10.49Q48.83 9.97 48.82 9.55L48.82 9.55L48.82 9.55Q48.80 9.14 48.76 8.95L48.76 8.95L48.76 8.95Q48.62 8.23 48.06 7.79L48.06 7.79L48.06 7.79Q47.50 7.35 46.69 7.35L46.69 7.35L46.69 7.35Q45.89 7.35 45.35 7.79L45.35 7.79L45.35 7.79Q44.80 8.23 44.65 8.95L44.65 8.95L44.65 8.95Q44.56 9.31 44.56 10.49L44.56 10.49L44.56 10.49Q44.56 11.68 44.65 12.03L44.65 12.03L44.65 12.03Q44.80 12.75 45.35 13.19L45.35 13.19L45.35 13.19Q45.89 13.62 46.70 13.62L46.70 13.62ZM53.07 14L53.07 14Q52.96 14 52.92 13.89L52.92 13.89L50.96 7.13L50.95 7.08L50.95 7.08Q50.95 6.97 51.09 6.97L51.09 6.97L51.34 6.97L51.34 6.97Q51.46 6.97 51.49 7.08L51.49 7.08L53.19 13.17L53.19 13.17Q53.20 13.20 53.23 13.20L53.23 13.20L53.23 13.20Q53.26 13.20 53.27 13.17L53.27 13.17L54.98 7.08L54.98 7.08Q55.01 6.97 55.13 6.97L55.13 6.97L55.41 6.97L55.41 6.97Q55.52 6.97 55.57 7.08L55.57 7.08L57.29 13.16L57.29 13.16Q57.30 13.19 57.33 13.19L57.33 13.19L57.33 13.19Q57.36 13.19 57.37 13.16L57.37 13.16L59.08 7.08L59.08 7.08Q59.12 6.97 59.23 6.97L59.23 6.97L59.50 6.97L59.50 6.97Q59.57 6.97 59.61 7.01L59.61 7.01L59.61 7.01Q59.64 7.06 59.63 7.13L59.63 7.13L57.64 13.89L57.64 13.89Q57.60 14 57.48 14L57.48 14L57.19 14L57.19 14Q57.08 14 57.04 13.89L57.04 13.89L55.31 8.01L55.31 8.01Q55.30 7.98 55.27 7.98L55.27 7.98L55.27 7.98Q55.24 7.98 55.23 8.01L55.23 8.01L53.54 13.89L53.54 13.89Q53.49 14 53.38 14L53.38 14L53.07 14Z"></path></g><!----><g data-v-423bf9ae="" id="1d601c27-ef3a-4911-9fae-ea8023cf82a9" transform="matrix(1.2857142857142858,0,0,1.2857142857142858,-0.6956416879381493,-16.9048570905413)" stroke="none" fill="#EC6149"><path d="M6.798 43.464c0-4.328 3.848-4.356 3.848-10.176 0-3.004-1.342-4.931-1.757-13.291-.009-.187-.721-.324-.755-.149-.048.246.258 13.473.201 13.809-.041.246-.766.268-.821-.018-.05-.255-.479-13.289-.52-13.731-.034-.37-.756-.262-.875-.147 0 0-.018 13.793-.038 13.938-.033.239-.822.248-.87 0-.027-.144-.038-13.939-.038-13.939-.119-.114-.84-.222-.875.147-.041.442-.47 13.476-.52 13.731-.055.286-.78.264-.821.018-.057-.335.25-13.562.201-13.809-.034-.175-.746-.038-.755.149C1.988 28.356.646 30.283.646 33.287c0 5.82 3.847 5.848 3.848 10.176 0 3.669.025 15.654 0 16.219-.236 5.216-2.238 11.018-2.238 15.867 0 4.104 3.302 4.104 3.302 4.104l.088-.002.088.002s3.302 0 3.302-4.104c0-4.851-2.002-10.648-2.239-15.867-.024-.564.001-12.55.001-16.218zM99.441 33.579c0-4.918-2.183-13.639-6-13.639-3.818 0-6 8.72-6 13.639 0 5.814 4.901 5.888 4.901 10.211 0 3.665.025 15.64 0 16.2-.243 5.212-2.31 11.005-2.31 15.852 0 4.1 3.406 4.1 3.406 4.1s3.406 0 3.406-4.1c0-4.847-2.066-10.64-2.31-15.852-.024-.562 0-12.536 0-16.2.005-4.323 4.907-4.396 4.907-10.211zM49.667 13.667c-19.33 0-35 15.67-35 35s15.67 35 35 35 35-15.67 35-35-15.67-35-35-35zm0 60c-13.807 0-25-11.192-25-25 0-13.807 11.193-25 25-25 13.808 0 25 11.193 25 25 0 13.808-11.192 25-25 25z"></path><circle cx="49.667" cy="48.667" r="23.5"></circle></g><!----></svg>